<?xml version="1.0" encoding="UTF-8" standalone="no"?>
<!-- Created with Inkscape (http://www.inkscape.org/) -->

<svg
   xmlns:dc="http://purl.org/dc/elements/1.1/"
   xmlns:cc="http://creativecommons.org/ns#"
   xmlns:rdf="http://www.w3.org/1999/02/22-rdf-syntax-ns#"
   xmlns:svg="http://www.w3.org/2000/svg"
   xmlns="http://www.w3.org/2000/svg"
   xmlns:sodipodi="http://sodipodi.sourceforge.net/DTD/sodipodi-0.dtd"
   xmlns:inkscape="http://www.inkscape.org/namespaces/inkscape"
   version="1.1"
   width="610pt"
   height="458pt"
   viewBox="0 0 610 458"
   id="svg3010"
   inkscape:version="0.48.5 r10040"
   sodipodi:docname="hand.svg">
  <metadata
     id="metadata20">
    <rdf:RDF>
      <cc:Work
         rdf:about="">
        <dc:format>image/svg+xml</dc:format>
        <dc:type
           rdf:resource="http://purl.org/dc/dcmitype/StillImage" />
        <dc:title></dc:title>
      </cc:Work>
    </rdf:RDF>
  </metadata>
  <sodipodi:namedview
     pagecolor="#ffffff"
     bordercolor="#666666"
     borderopacity="1"
     objecttolerance="10"
     gridtolerance="10"
     guidetolerance="10"
     inkscape:pageopacity="0"
     inkscape:pageshadow="2"
     inkscape:window-width="1440"
     inkscape:window-height="795"
     id="namedview18"
     showgrid="false"
     inkscape:zoom="1.1659542"
     inkscape:cx="373.53078"
     inkscape:cy="382.99396"
     inkscape:window-x="0"
     inkscape:window-y="0"
     inkscape:window-maximized="1"
     inkscape:current-layer="svg3010" />
  <defs
     id="defs3042" />
  <g
     id="g2997"
     transform="translate(-436.24102,-214.74159)">
    <path
       style="font-size:medium;font-style:normal;font-variant:normal;font-weight:normal;font-stretch:normal;text-indent:0;text-align:start;text-decoration:none;line-height:normal;letter-spacing:normal;word-spacing:normal;text-transform:none;direction:ltr;block-progression:tb;writing-mode:lr-tb;text-anchor:start;color:#000000;fill:#ffffff;fill-opacity:1;fill-rule:nonzero;stroke:none;stroke-width:5;marker:none;visibility:visible;display:inline;overflow:visible;enable-background:accumulate;font-family:Acquaintance;-inkscape-font-specification:Acquaintance"
       id="path4109"
       d="m 372.2501,62.425 c -0.07,4.516521 -0.091,9.029106 -0.12504,13.55 l -0.025,1.9 -1.9,0.075 c -4.50824,0.14803 -9.0372,0.19862 -13.57504,0.225 -0.24624,45.90156 -0.11,91.78363 -0.12496,137.675 l 0,1.975 -1.97504,0.025 c -3.80984,0.0396 -7.64344,0.0756 -11.47496,0.175 l -2.07496,0.05 0.025,-2.075 c 0.0784,-4.48546 0.045,-8.9663 -0.05,-13.425 -15.57008,-0.13 -31.15504,-0.21 -46.72504,0.05 0.02,15.51 -0.03,31.01499 0,46.525 4.51344,0.0867 9.08088,0.29755 13.65008,-0.025 l 2.5,-0.175 -0.37504,2.475 c -0.65392,4.47874 -0.21704,9.01117 -0.2,13.5 4.308,0.2258 8.64528,0.268 13,0.275 l 1.85,0 0.15,1.85 c 0.72248,9.58844 0.3648,19.21614 0.52496,28.85 4.4744,0.18281 8.97824,0.2556 13.47504,0.3 l 1.95,0.025 0.025,1.95 c 0.072,9.61897 0.0502,19.23297 0.2,28.85 4.51632,0.0716 9.06432,0.30113 13.62496,0.025 l 2.3,-0.125 -0.17504,2.275 c -0.75912,9.61486 -0.10096,19.30862 -0.17496,28.95 4.39824,0.0869 8.79208,0.1492 13.2,0.175 l 1.97496,0 0.025,1.975 c 0.19384,14.85138 0.0984,29.71494 0.3,44.575 25.64,0.37 51.3,0.405 76.95,0.375 26.26008,-0.04 52.51496,0.18 78.77504,-0.45 -0.42,-14.81447 0.90744,-29.62125 0.3,-44.425 l -0.075,-2.125 2.12496,0.05 c 4.40728,0.12427 8.82184,0.0373 13.2,-0.1 0.16304,-14.73422 0.18104,-29.48934 0.2,-44.225 l 0,-1.825 1.8,-0.175 c 4.47552,-0.428 8.9892,-0.4605 13.52504,-0.425 0.10992,-16.50354 -0.19784,-32.99652 0.3,-49.5 l 0,-0.05 0,-0.05 c -0.54784,-19.82347 -0.16016,-39.66647 -0.4,-59.5 -4.448,0.0349 -8.88552,-0.0115 -13.3,-0.075 l -1.92504,-0.025 -0.0499,-1.925 c -0.089,-4.37414 -0.14504,-8.77407 -0.075,-13.175 -4.56416,-0.1332 -9.10032,0.01 -13.62496,-0.25 l -1.75008,-0.1 -0.12496,-1.75 c -0.32096,-4.54801 -0.16304,-9.14168 -0.22496,-13.75 -9.67552,-0.0374 -19.3424,0.0413 -29,-0.1 l -1.95008,-0.025 -0.025,-1.95 c -0.075,-4.36722 -0.12696,-8.73598 -0.075,-13.125 -14.84232,-0.78573 -29.72472,-0.27712 -44.57496,-0.45 l -1.9,-0.025 -0.075,-1.875 c -0.20304,-4.49766 -0.28504,-9.00778 -0.27504,-13.55 -9.6556,-0.0469 -19.30744,0.0308 -28.95,-0.175 l -1.92504,-0.05 -0.025,-1.925 c -0.19096,-19.98043 -0.082,-39.967216 -0.15,-59.95 -2.57504,-0.02499 -5.14992,-0.045 -7.72504,-0.05 -1.91976,-0.0037 -3.83224,0.0051 -5.74992,0.025 L 403.225,78.2 403.25,76.15 c 0.0687,-4.585591 0.0609,-9.173454 -0.37496,-13.725 -10.21024,0.03 -20.41504,0.06 -30.62504,0 z"
       inkscape:connector-curvature="0" />
    <path
       style="fill:#1c1c1c"
       id="path3016"
       d="m 372.24,62.42 c 10.21,0.06 20.42,0.04 30.63,0.01 0.49,5.12 0.47,10.27 0.37,15.4 -10.38,0.1 -20.75,-0.03 -31.13,0.1 0.04,-5.17 0.05,-10.34 0.13,-15.51 z"
       inkscape:connector-curvature="0" />
    <path
       style="fill:#1c1c1c"
       id="path3018"
       d="m 356.62,78.17 c 5.16,-0.03 10.33,-0.02 15.49,-0.24 0.01,57.09 0.1,114.18 0.04,171.27 -5.2,0.12 -10.4,0.12 -15.6,0.01 -0.1,-5.11 -0.1,-10.23 -0.03,-15.35 -5.17,-0.2 -10.34,-0.17 -15.51,-0.15 -0.17,-5.22 -0.21,-10.45 -0.01,-15.67 5.16,-0.19 10.33,-0.13 15.5,-0.21 0.02,-46.55 -0.13,-93.1 0.12,-139.66 z"
       inkscape:connector-curvature="0" />
    <path
       style="fill:#1c1c1c"
       id="path3020"
       d="m 403.3,78.19 c 5.15,-0.07 10.3,-0.04 15.45,0.01 0.07,20.64 -0.07,41.29 0.15,61.93 10.3,0.27 20.6,0.12 30.9,0.17 -0.01,5.15 0,10.3 0.3,15.45 15.5,0.25 31.03,-0.37 46.52,0.45 -0.06,5.03 -0.03,10.06 0.08,15.09 10.32,0.19 20.65,0.07 30.98,0.11 0.07,5.17 -0.26,10.37 0.29,15.52 5.13,0.45 10.28,0.18 15.42,0.33 -0.08,5.04 -0.04,10.08 0.09,15.12 5.08,0.09 10.17,0.13 15.27,0.09 0.24,19.85 -0.15,39.7 0.4,59.54 -0.5,16.52 -0.2,33.04 -0.31,49.56 -5.12,-0.04 -10.24,-0.06 -15.32,0.57 -0.02,15.35 -0.03,30.71 -0.2,46.06 -5.1,0.16 -10.21,0.33 -15.3,0.08 -0.58,-15.62 -0.31,-31.26 -0.16,-46.89 5.13,0.05 10.27,0.05 15.41,0.01 0.01,-36.3 0.04,-72.59 0.06,-108.89 -5.13,-0.07 -10.26,-0.06 -15.39,0 -0.29,-5.05 0.04,-10.13 -0.37,-15.17 -5.09,-0.98 -10.29,-0.38 -15.43,-0.4 -0.11,15.57 0.18,31.14 -0.13,46.72 -5.08,0.01 -10.17,0.01 -15.25,0.02 -0.35,-20.77 0.01,-41.54 -0.12,-62.31 -10.41,-0.06 -20.82,-0.03 -31.22,0 0,15.56 0.16,31.12 -0.02,46.67 -5.16,0.11 -10.31,0.11 -15.46,0.01 -0.1,-20.75 -0.12,-41.51 0.13,-62.26 -10.42,-0.05 -20.83,-0.06 -31.25,0.06 -0.11,20.73 0.08,41.46 0,62.19 -5.21,0.15 -10.43,0.16 -15.64,0.01 0,-46.61 0.03,-93.23 0.12,-139.85 z"
       inkscape:connector-curvature="0" />
    <path
       style="fill:#1c1c1c"
       id="path3026"
       d="m 294.23,202.62 c 15.57,-0.26 31.15,-0.18 46.72,-0.05 0.11,5.16 0.2,10.31 0.05,15.47 -10.33,0.24 -20.66,0.06 -30.98,0.14 -0.38,10.28 0.55,20.59 -0.15,30.86 -5.2,0.6 -10.44,0.2 -15.65,0.1 -0.03,-15.51 0.03,-31.01 0.01,-46.52 z"
       inkscape:connector-curvature="0" />
    <path
       style="fill:#1c1c1c"
       id="path3030"
       d="m 310.29,249.39 c 5,-0.77 10.08,-0.48 15.12,-0.34 0.11,5.19 0.12,10.39 0.07,15.59 5.2,0.03 10.39,0.02 15.59,0.09 0.12,10.35 0,20.7 0.06,31.05 5.13,-0.03 10.27,-0.02 15.41,0.05 -0.07,10.38 0.67,20.84 -0.39,31.17 -5.06,0.46 -10.13,0.1 -15.18,0.02 -0.16,-10.26 -0.14,-20.52 -0.23,-30.78 -5.14,-0.03 -10.28,-0.12 -15.42,-0.33 -0.17,-10.22 0.33,-20.46 -0.6,-30.65 -4.97,0.02 -9.95,-0.07 -14.91,-0.33 -0.02,-5.18 -0.7,-10.44 0.48,-15.54 z"
       inkscape:connector-curvature="0" />
    <path
       style="fill:#1c1c1c"
       id="path3038"
       d="m 356.86,327.07 c 5.08,-0.4 10.19,-0.16 15.29,-0.13 0.14,10.33 0.01,20.66 0.04,30.98 5.18,-0.02 10.38,-0.02 15.57,0.16 0.1,10.33 -0.09,20.67 0.06,31 41.41,0.1 82.82,0.08 124.23,0.06 0.16,-10.34 -0.04,-20.68 0.07,-31.03 5.3,-0.07 10.6,-0.14 15.9,0.16 0.84,15.5 -0.68,31.01 -0.24,46.53 -26.26,0.63 -52.52,0.4 -78.78,0.44 -25.65,0.03 -51.3,0 -76.94,-0.37 -0.21,-15.51 -0.1,-31.02 -0.33,-46.52 -5.06,-0.01 -10.12,-0.09 -15.18,-0.19 0.08,-10.36 -0.75,-20.79 0.31,-31.09 z"
       inkscape:connector-curvature="0" />
  </g>
</svg>
