<svg xmlns="http://www.w3.org/2000/svg" xmlns:xlink="http://www.w3.org/1999/xlink" version="1.1" id="Livello_1" x="0px" y="0px" width="100px" height="100px" viewBox="0 0 100 100" enable-background="new 0 0 100 100" xml:space="preserve">
<g>
	<path d="M46.016,7.521c0,0,1.577,7.043-0.093,13.455c-1.675,6.414-0.991,12.127,4.448,12.127c5.422,0,5.833-6.878,5.046-13.572   s-1.914-11.067-2.52-12.642C51.858,4.171,45.65,4.328,46.016,7.521z"/>
</g>
<g>
	<path d="M41.779,19.088c0.01-0.051,0.029-0.107,0.039-0.159c-0.889-0.349-1.826-0.72-2.832-1.106   c-10.439-4.001-22.656-1.953-22.656-1.953c9.844-0.315,19.209,8.467,23.311,12.266c0.425,0.396,0.918,0.801,1.47,1.194   C40.543,26.447,40.758,22.995,41.779,19.088z"/>
</g>
<g>
	<path d="M59.924,18.939c0.615,5.647,0.239,9.891-1.167,13.013c0.439-0.212,0.884-0.444,1.318-0.706   C69.113,25.78,73.552,2.528,73.552,2.528C70.222,9.372,64.758,14.85,59.924,18.939z"/>
</g>
<path d="M99.227,41.858c-1.616-6.97-7.334-18.289-19.819-20.687c-5.02-0.852-7.28,2.889-8.003,4.178  c-2.5,4.521-5.239,6.633-8.271,8.462c-3.325,2.017-7.041,2.537-11.03,2.537c-11.104,0-15.747-5.325-17.739-6.965  c-1.997-1.641-5.635-3.85-9.775-5.313c-1.245-0.442-6.421-1.822-9.897-0.293C7.977,26.738,3.146,34.688,1.154,41.858  C-1.15,50.144-1.8,71.341,17.083,86.321c18.887,14.99,48.882,14.512,66.509,0.693C101.204,73.191,100.979,49.421,99.227,41.858z"/>
</svg>